<svg version="1.1" id="Layer_1" xmlns="http://www.w3.org/2000/svg" xmlns:xlink="http://www.w3.org/1999/xlink" x="0px" y="0px"
	 width="895" height="422" viewBox="322 282 895 422" enable-background="new 0 0 1536 1024" xml:space="preserve">
<path fill="none" opacity="1.000000" stroke="#000000" stroke-linecap="round" stroke-linejoin="round" stroke-width="17.000000"
	d="
M717.000000,303.000000 
	C871.500000,303.000000 1026.000000,303.000000 1180.500000,303.000000 
	C1189.915161,303.000000 1195.998047,309.072083 1195.998291,318.500000 
	C1196.000732,436.666656 1196.000610,554.833313 1195.998779,673.000000 
	C1195.998657,680.411743 1193.441040,682.964417 1186.000000,682.998047 
	C1183.333374,683.010132 1180.665649,683.045227 1178.000244,682.990601 
	C1172.339844,682.874695 1169.067871,679.678528 1169.021729,673.999817 
	C1168.943115,664.333801 1169.000000,654.666687 1169.000000,645.000000 
	C1169.000000,543.000000 1168.997070,441.000000 1169.016602,339.000000 
	C1169.017090,336.356628 1168.979858,333.749908 1167.867065,331.187317 
	C1165.462769,330.004944 1162.750854,329.984619 1160.000000,329.984802 
	C904.666687,330.001190 649.333313,330.000000 394.000000,330.000000 
	C388.333344,330.000000 382.663574,330.116852 377.000854,329.967743 
	C371.113403,329.812744 369.503906,330.703857 369.532135,337.499878 
	C369.598541,353.500275 370.330261,369.515259 369.839630,385.495087 
	C369.460632,397.839355 369.635834,410.197235 369.763885,422.497253 
	C370.048492,449.833527 369.778748,477.166962 369.959259,504.500275 
	C370.036316,516.165344 369.514252,527.833618 369.535339,539.499939 
	C369.567902,557.500183 369.922302,575.499695 369.978912,593.500061 
	C370.061218,619.666504 370.002655,645.833313 369.998444,672.000000 
	C369.997101,680.337341 367.370239,682.959473 359.000000,682.997864 
	C356.166718,683.010864 353.326447,683.125916 350.501587,682.970886 
	C346.131683,682.731018 343.336029,679.864929 343.010895,675.499207 
	C342.936829,674.504700 343.000000,673.500000 343.000000,672.500000 
	C343.000000,554.500000 343.000000,436.500000 343.000000,318.500000 
	C343.000000,308.331909 348.331909,303.000000 358.500000,303.000000 
	C467.833344,303.000000 577.166687,303.000000 686.500000,303.000000 
	C696.333313,303.000000 706.166687,303.000000 716.000000,303.000000 
"/>
<path fill="none" opacity="1.000000" stroke="#000000" stroke-linecap="round" stroke-linejoin="round" stroke-width="3.000000"
	d="
M1155.000000,377.500000 
	C1150.289551,375.953979 1145.475830,375.001282 1140.500000,375.000916 
	C1112.833374,374.998962 1085.166626,375.000000 1057.500000,375.000000 
	C1032.500000,375.000000 1007.500000,375.000000 982.500000,375.000000 
	C915.166687,375.000000 847.833313,375.000000 780.500000,375.000000 
	C731.666687,375.000000 682.833313,375.000000 634.000000,375.000000 
	C570.833313,375.000000 507.666656,375.000000 444.500000,375.000000 
	C430.666656,375.000000 416.832947,375.063660 403.000153,374.977203 
	C394.042450,374.921234 385.298096,375.936646 377.012848,379.529602 
	C374.835876,380.473663 372.654633,379.676758 370.500000,380.000000 
"/>
<path fill="none" opacity="1.000000" stroke="#000000" stroke-linecap="round" stroke-linejoin="round" stroke-width="3.000000"
	d="
M1156.000000,330.500000 
	C1156.000000,345.500000 1156.815186,360.557770 1155.757324,375.482788 
	C1154.809448,388.853668 1155.432129,402.169037 1155.076416,415.502045 
	C1155.027954,417.321808 1154.394897,418.845642 1154.000000,420.500000 
"/>
<path fill="none" opacity="1.000000" stroke="#000000" stroke-linecap="round" stroke-linejoin="round" stroke-width="3.000000"
	d="
M1143.000000,459.500000 
	C1120.833374,459.333344 1098.666870,459.121277 1076.499878,459.015137 
	C1060.333618,458.937744 1044.156860,458.652924 1028.002930,459.105804 
	C1014.164124,459.493774 1000.328308,459.122864 986.497681,459.252899 
	C971.349731,459.395325 956.166931,459.115082 940.999878,459.017853 
	C927.667114,458.932404 914.333313,459.000000 901.000000,459.000000 
	C887.166687,459.000000 873.305359,458.447998 859.507446,459.146606 
	C843.975159,459.933044 828.487915,458.064453 813.003540,459.054962 
	C798.498779,459.982880 784.019104,458.588623 769.490051,459.295990 
	C754.201111,460.040314 738.833679,459.087677 723.499939,459.020050 
	C704.500305,458.936249 685.500000,459.000000 666.500000,459.000000 
	C635.833313,459.000000 605.166687,459.000000 574.500000,459.000000 
	C553.500000,459.000000 532.487183,458.576416 511.506439,459.212372 
	C503.328583,459.460205 495.139038,457.979126 487.000000,459.500000 
"/>
<path fill="none" opacity="1.000000" stroke="#000000" stroke-linecap="round" stroke-linejoin="round" stroke-width="3.000000"
	d="
M1168.500000,425.000000 
	C1161.745850,426.096497 1156.702515,421.714050 1151.019775,419.450378 
	C1147.602295,418.089050 1144.209351,416.992432 1140.500000,416.993896 
	C1112.500000,417.005127 1084.500000,417.000000 1056.500000,417.000000 
	C1026.666626,417.000000 996.833313,417.000000 967.000000,417.000000 
	C902.666687,417.000000 838.333313,417.000000 774.000000,417.000000 
	C696.000000,417.000000 618.000000,417.000000 540.000000,417.000000 
	C493.833344,417.000000 447.666534,417.051392 401.500122,416.942566 
	C394.862946,416.926941 388.763245,418.090454 382.962677,421.435272 
	C379.126434,423.647430 374.853943,425.020172 370.500000,426.000000 
"/>
<path fill="none" opacity="1.000000" stroke="#000000" stroke-linecap="round" stroke-linejoin="round" stroke-width="6.000000"
	d="
M371.000000,650.500000 
	C375.046722,650.950195 378.188721,649.912231 381.105286,646.592529 
	C386.228363,640.761292 392.024841,635.524414 397.481995,629.982239 
	C398.788147,628.655762 399.825317,627.447937 402.037384,628.414429 
	C403.156982,628.903625 404.666656,628.500000 406.000000,628.500000 
	C436.000000,628.500000 466.000000,628.500000 496.000000,628.500000 
	C554.000000,628.500000 612.000000,628.500000 670.000000,628.500000 
	C732.333313,628.500000 794.666687,628.500000 857.000000,628.500000 
	C903.333313,628.500000 949.666687,628.500000 996.000000,628.500000 
	C1041.666626,628.500000 1087.333374,628.506775 1133.000000,628.475098 
	C1134.830811,628.473816 1136.738770,628.960022 1138.546265,628.009705 
	C1145.757080,634.054565 1152.496826,640.673584 1158.918091,647.576172 
	C1161.575806,650.433167 1164.401245,651.372925 1168.000000,651.000000 
"/>
<path fill="none" opacity="1.000000" stroke="#000000" stroke-linecap="round" stroke-linejoin="round" stroke-width="3.000000"
	d="
M1139.500000,585.000000 
	C892.500000,585.000000 645.500000,585.000000 398.500000,585.000000 
"/>
<path fill="none" opacity="1.000000" stroke="#000000" stroke-linecap="round" stroke-linejoin="round" stroke-width="3.000000"
	d="
M382.000000,330.500000 
	C381.701447,345.347534 383.695984,360.143036 383.025146,375.001129 
	C382.995453,375.658936 383.333344,376.333344 383.500000,377.000000 
"/>
<path fill="none" opacity="1.000000" stroke="#000000" stroke-linecap="round" stroke-linejoin="round" stroke-width="3.000000"
	d="
M1168.500000,514.500000 
	C1164.487793,514.869995 1161.268311,513.720154 1157.879395,511.159637 
	C1152.853394,507.362305 1148.012085,502.885376 1141.494629,501.525940 
	C1139.864136,501.185852 1138.166748,501.022583 1136.500000,501.021210 
	C1102.000000,500.992981 1067.500000,501.000000 1033.000000,501.000000 
	C1009.833313,501.000000 986.666321,500.924103 963.500122,501.030701 
	C951.166870,501.087463 938.833191,501.150726 926.497681,501.368103 
	C907.506531,501.702698 888.500244,501.113892 869.499939,501.016388 
	C853.833618,500.936005 838.163208,500.794495 822.501038,501.060516 
	C808.167114,501.303986 793.834717,501.079071 779.496948,501.320740 
	C752.507446,501.775604 725.498657,500.958679 698.500854,501.130188 
	C690.677673,501.179871 682.808044,500.145325 675.000000,501.500000 
"/>
<path fill="none" opacity="1.000000" stroke="#000000" stroke-linecap="round" stroke-linejoin="round" stroke-width="3.000000"
	d="
M1168.500000,559.500000 
	C1161.188354,561.220398 1156.918213,555.527893 1152.709961,551.765198 
	C1146.127197,545.879639 1139.394409,542.835205 1130.499268,542.890015 
	C1089.834229,543.140381 1049.166626,543.000000 1008.500000,543.000000 
	C946.666687,543.000000 884.833313,543.000000 823.000000,543.000000 
	C807.166687,543.000000 791.333313,543.000000 775.500000,543.000000 
	C759.833313,543.000000 744.166687,543.000000 728.500000,543.000000 
	C712.833313,543.000000 697.166687,543.000000 681.500000,543.000000 
	C635.000000,543.000000 588.500000,543.000000 542.000000,543.000000 
	C498.666656,543.000000 455.332001,543.183105 412.001007,542.863403 
	C401.931641,542.789124 392.918365,544.255310 386.005188,551.237793 
	C385.972107,565.167664 385.951172,578.853394 387.000000,592.500000 
"/>
<path fill="none" opacity="1.000000" stroke="#000000" stroke-linecap="round" stroke-linejoin="round" stroke-width="3.000000"
	d="
M674.000000,501.000031 
	C658.833313,501.166687 643.658569,501.693695 628.503296,501.353363 
	C620.502197,501.173676 612.499512,501.063232 604.499878,501.030457 
	C582.833557,500.941620 561.166687,501.000000 539.500000,501.000000 
	C521.500000,501.000000 503.500000,501.000000 485.500000,501.000000 
	C463.833344,501.000000 442.165466,501.127197 420.500702,500.924011 
	C413.829468,500.861450 407.217072,501.956055 400.479584,501.176514 
	C396.900116,500.762390 393.196533,502.610321 390.035675,504.557892 
	C386.382294,506.808990 382.975739,509.466949 379.508972,512.012207 
	C377.392670,513.565918 375.169525,514.784485 372.500000,515.000000 
"/>
<path fill="none" opacity="1.000000" stroke="#000000" stroke-linecap="round" stroke-linejoin="round" stroke-width="3.000000"
	d="
M486.000000,459.000000 
	C461.500000,459.000000 436.993988,458.703430 412.504059,459.200012 
	C406.050751,459.330902 399.452820,458.341614 392.951569,460.342682 
	C390.013550,461.247009 388.098053,463.350525 385.500000,464.500000 
"/>
<path fill="none" opacity="1.000000" stroke="#000000" stroke-linecap="round" stroke-linejoin="round" stroke-width="4.000000"
	d="
M911.500061,330.500000 
	C911.333374,357.666656 911.532410,384.842041 910.886414,411.997284 
	C910.351074,434.503662 911.071655,457.010040 910.397156,479.496918 
	C909.896912,496.170715 910.561157,512.847229 909.892639,529.495667 
	C909.383545,542.172424 909.668091,554.833496 909.519104,567.500244 
	C909.281067,587.749390 909.166748,608.000000 909.000061,628.250000 
"/>
<path fill="none" opacity="1.000000" stroke="#000000" stroke-linecap="round" stroke-linejoin="round" stroke-width="3.000000"
	d="
M769.000000,330.500000 
	C769.000000,429.750000 769.000000,529.000000 769.000000,628.250000 
"/>
<path fill="none" opacity="1.000000" stroke="#000000" stroke-linecap="round" stroke-linejoin="round" stroke-width="3.000000"
	d="
M627.000000,330.500000 
	C627.000000,355.833344 626.644836,381.173065 627.102600,406.498138 
	C627.536499,430.501617 626.974854,454.509857 627.619446,478.496796 
	C628.116821,497.004517 627.446655,515.510193 628.067444,533.997742 
	C628.879089,558.167358 628.058105,582.337830 628.601196,606.497742 
	C628.764221,613.747498 628.906982,620.998291 629.000000,628.250000 
"/>
<path fill="none" opacity="1.000000" stroke="#000000" stroke-linecap="round" stroke-linejoin="round" stroke-width="3.000000"
	d="
M437.000000,330.500000 
	C437.333344,345.333344 437.666687,360.166656 438.000000,375.000000 
"/>
<path fill="none" opacity="1.000000" stroke="#000000" stroke-linecap="round" stroke-linejoin="round" stroke-width="6.000000"
	d="
M389.000000,331.000000 
	C388.956512,345.903687 389.828552,360.745636 392.000000,375.500000 
"/>
<path fill="none" opacity="1.000000" stroke="#000000" stroke-linecap="round" stroke-linejoin="round" stroke-width="4.000000"
	d="
M1101.000000,330.500000 
	C1101.631958,353.191620 1099.497925,375.816071 1099.345459,398.498962 
	C1099.257080,411.656006 1098.681030,424.827545 1098.446411,437.999054 
	C1097.956543,465.502197 1097.324951,493.005127 1096.435913,520.497925 
	C1095.966919,534.998230 1095.718140,549.496399 1095.434937,563.998718 
	C1095.021484,585.170349 1094.166626,606.333313 1093.500000,627.500000 
"/>
<path fill="none" opacity="1.000000" stroke="#000000" stroke-linecap="round" stroke-linejoin="round" stroke-width="4.000000"
	d="
M1054.000000,330.500000 
	C1053.926025,355.175293 1052.497070,379.817230 1052.352173,404.499146 
	C1052.259155,420.325562 1051.674316,436.161957 1051.453735,451.999359 
	C1051.133423,475.001862 1050.501099,498.000031 1049.999390,521.000000 
	C1049.668457,536.166748 1049.353149,551.333801 1048.995117,566.499878 
	C1048.514771,586.833679 1048.000000,607.166687 1047.500000,627.500000 
"/>
<path fill="none" opacity="1.000000" stroke="#000000" stroke-linecap="round" stroke-linejoin="round" stroke-width="4.000000"
	d="
M579.000061,330.500000 
	C579.166687,348.000000 579.059753,365.507904 579.564697,382.998138 
	C580.305786,408.663483 580.296509,434.330994 580.564331,459.999329 
	C580.901611,492.332642 581.385986,524.663391 581.634583,556.998962 
	C581.815125,580.496643 582.532715,603.994812 582.500000,627.500000 
"/>
<path fill="none" opacity="1.000000" stroke="#000000" stroke-linecap="round" stroke-linejoin="round" stroke-width="3.000000"
	d="
M484.000000,330.500000 
	C484.958130,344.984192 484.213776,359.515808 485.312469,374.014221 
	C485.595825,377.752991 485.390259,381.662811 485.463989,385.500702 
	C485.723358,398.998901 485.791504,412.500671 486.010284,425.999847 
	C486.302002,444.000519 486.643036,462.000488 487.007416,479.999847 
	C487.304321,494.667236 487.493622,509.339783 488.039551,523.998535 
	C488.914551,547.492920 489.271759,570.993408 489.535858,594.499573 
	C489.659485,605.501953 490.166656,616.500000 490.499969,627.500000 
"/>
<path fill="none" opacity="1.000000" stroke="#000000" stroke-linecap="round" stroke-linejoin="round" stroke-width="4.000000"
	d="
M531.500000,330.500000 
	C531.833374,353.333344 532.018250,376.170441 532.600342,398.997437 
	C532.753296,404.996307 532.909546,410.997894 533.000000,417.000000 
"/>
<path fill="none" opacity="1.000000" stroke="#000000" stroke-linecap="round" stroke-linejoin="round" stroke-width="3.000000"
	d="
M674.000000,330.500000 
	C674.297729,345.165192 674.011597,359.829407 674.355591,374.503387 
	C674.898438,397.657318 674.446167,420.833496 674.511414,443.999969 
	C674.639160,489.333435 674.583130,534.669739 675.135986,579.998352 
	C675.329102,595.832825 675.251038,611.667542 675.500000,627.500000 
"/>
<path fill="none" opacity="1.000000" stroke="#000000" stroke-linecap="round" stroke-linejoin="round" stroke-width="3.000000"
	d="
M721.500000,330.500000 
	C721.500000,370.666656 721.098633,410.838318 721.596313,450.998810 
	C722.300659,507.834137 721.716187,564.666992 722.019836,621.499878 
	C722.030518,623.500732 722.333313,625.500000 722.499939,627.500000 
"/>
<path fill="none" opacity="1.000000" stroke="#000000" stroke-linecap="round" stroke-linejoin="round" stroke-width="3.000000"
	d="
M816.500061,330.500000 
	C816.333374,373.333344 816.166687,416.166656 816.000061,459.000000 
"/>
<path fill="none" opacity="1.000000" stroke="#000000" stroke-linecap="round" stroke-linejoin="round" stroke-width="6.000000"
	d="
M1149.000000,331.000000 
	C1149.617310,342.050781 1147.976929,353.008118 1147.249146,363.983368 
	C1147.010986,367.574036 1147.160278,371.423370 1146.000000,375.000000 
"/>
<path fill="none" opacity="1.000000" stroke="#000000" stroke-linecap="round" stroke-linejoin="round" stroke-width="4.000000"
	d="
M864.000000,330.500000 
	C863.833374,365.500000 863.678833,400.500061 863.496155,435.499969 
	C863.348328,463.833435 863.150208,492.166565 863.004089,520.500000 
	C862.820190,556.166626 862.666626,591.833313 862.500000,627.500000 
"/>
<path fill="none" opacity="1.000000" stroke="#000000" stroke-linecap="round" stroke-linejoin="round" stroke-width="4.000000"
	d="
M959.500000,330.500000 
	C959.166687,353.333344 959.283508,376.184448 958.381836,398.995331 
	C957.340698,425.333344 957.999878,451.672119 957.408386,477.997955 
	C956.756897,506.998688 956.905151,536.004456 956.343933,564.997009 
	C955.940674,585.831909 955.520447,606.661682 955.500000,627.500000 
"/>
<path fill="none" opacity="1.000000" stroke="#000000" stroke-linecap="round" stroke-linejoin="round" stroke-width="4.000000"
	d="
M1006.500000,330.500000 
	C1006.485107,345.173889 1006.492493,359.839752 1005.587646,374.505402 
	C1005.095947,382.475067 1005.575684,390.500854 1005.486145,398.499847 
	C1005.189575,425.000244 1004.885376,451.500824 1004.467407,477.999481 
	C1004.346436,485.669495 1003.833374,493.333344 1003.500061,501.000000 
"/>
<path fill="none" opacity="1.000000" stroke="#000000" stroke-linecap="round" stroke-linejoin="round" stroke-width="3.000000"
	d="
M383.500000,422.000000 
	C384.580505,428.643829 383.843018,435.333832 383.967712,442.000610 
	C384.108002,449.501099 384.000000,457.006256 384.000000,465.154694 
	C380.273071,466.475220 376.381134,470.871948 370.500000,469.500000 
"/>
<path fill="none" opacity="1.000000" stroke="#000000" stroke-linecap="round" stroke-linejoin="round" stroke-width="3.000000"
	d="
M815.500000,585.500000 
	C816.500427,590.807251 815.909790,596.166748 815.971680,601.500305 
	C816.075195,610.415833 816.000000,619.333313 816.000000,628.250000 
"/>
<path fill="none" opacity="1.000000" stroke="#000000" stroke-linecap="round" stroke-linejoin="round" stroke-width="4.000000"
	d="
M1004.000061,502.000000 
	C1003.833374,502.500000 1003.512939,503.002838 1003.522095,503.499603 
	C1004.050964,532.010437 1002.458557,560.494263 1002.444641,589.000000 
	C1002.438354,601.833435 1001.833313,614.666687 1001.500000,627.500000 
"/>
<path fill="none" opacity="1.000000" stroke="#000000" stroke-linecap="round" stroke-linejoin="round" stroke-width="4.000000"
	d="
M533.500000,418.000000 
	C532.456604,421.458252 532.782104,425.048431 533.114624,428.488922 
	C533.551147,433.006775 533.432373,437.498291 533.486206,442.000153 
	C533.687317,458.833099 533.781311,475.667389 534.013550,492.499817 
	C534.289490,512.500610 534.666626,532.500000 534.999939,552.500000 
	C535.333313,572.500000 535.650391,592.500305 536.011414,612.499817 
	C536.101624,617.501160 536.333313,622.500000 536.500000,627.500000 
"/>
<path fill="none" opacity="1.000000" stroke="#000000" stroke-linecap="round" stroke-linejoin="round" stroke-width="3.000000"
	d="
M438.500000,376.000000 
	C438.500000,383.500000 438.371429,391.002777 438.533386,398.499268 
	C438.724274,407.335693 439.265472,416.164276 439.478821,425.000519 
	C439.885223,441.832092 440.122742,458.667664 440.511597,475.499725 
	C440.962097,495.000885 441.503357,514.499939 441.999084,534.000000 
	C442.503265,553.833252 442.983765,573.667114 443.506287,593.499817 
	C443.804932,604.834045 444.166656,616.166687 444.500000,627.500000 
"/>
<path fill="none" opacity="1.000000" stroke="#000000" stroke-linecap="round" stroke-linejoin="round" stroke-width="3.000000"
	d="
M382.500000,378.500000 
	C383.572357,383.134308 382.915436,387.835083 382.961548,392.500366 
	C383.052399,401.695190 383.339630,410.869354 384.500000,420.000000 
"/>
<path fill="none" opacity="1.000000" stroke="#000000" stroke-linecap="round" stroke-linejoin="round" stroke-width="3.000000"
	d="
M1154.500000,422.000000 
	C1153.396729,430.314606 1154.304932,438.669769 1153.993408,446.999756 
	C1153.787720,452.498840 1154.528076,458.026093 1153.500000,463.500000 
"/>
<path fill="none" opacity="1.000000" stroke="#000000" stroke-linecap="round" stroke-linejoin="round" stroke-width="3.000000"
	d="
M816.500000,460.000000 
	C815.656616,461.771820 816.014587,463.661346 816.013794,465.500000 
	C815.995667,505.166656 816.000000,544.833313 816.000000,584.500000 
"/>
<path fill="none" opacity="1.000000" stroke="#000000" stroke-linecap="round" stroke-linejoin="round" stroke-width="6.000000"
	d="
M1145.000000,418.500000 
	C1144.029053,420.086243 1144.561646,421.832916 1144.520386,423.500519 
	C1143.989624,444.999756 1143.538208,466.501007 1142.968872,487.999176 
	C1142.849487,492.504852 1142.333374,497.000000 1142.000000,501.500000 
"/>
<path fill="none" opacity="1.000000" stroke="#000000" stroke-linecap="round" stroke-linejoin="round" stroke-width="3.000000"
	d="
M384.000000,466.000000 
	C385.363953,467.460541 384.990417,469.277252 384.992828,471.000000 
	C385.007263,481.333344 384.988037,491.666687 385.012024,501.999969 
	C385.015900,503.674561 384.698730,505.396790 385.500000,507.000000 
"/>
<path fill="none" opacity="1.000000" stroke="#000000" stroke-linecap="round" stroke-linejoin="round" stroke-width="6.000000"
	d="
M393.000000,418.500000 
	C393.813751,432.159485 393.153900,445.890869 395.000000,459.500000 
"/>
<path fill="none" opacity="1.000000" stroke="#000000" stroke-linecap="round" stroke-linejoin="round" stroke-width="3.000000"
	d="
M1152.500000,553.000000 
	C1151.350830,561.647766 1152.333496,570.336853 1151.993774,578.999756 
	C1151.804321,583.832458 1152.513184,588.695862 1151.500000,593.500000 
"/>
<path fill="none" opacity="1.000000" stroke="#000000" stroke-linecap="round" stroke-linejoin="round" stroke-width="6.000000"
	d="
M1145.999878,376.500000 
	C1145.666626,390.000000 1145.333252,403.500000 1144.999878,417.000000 
"/>
<path fill="none" opacity="1.000000" stroke="#000000" stroke-linecap="round" stroke-linejoin="round" stroke-width="6.000000"
	d="
M1141.499878,545.500000 
	C1140.999878,558.500000 1139.937500,571.509583 1140.158813,584.497314 
	C1140.377930,597.357483 1138.652954,610.151245 1139.462891,623.002319 
	C1139.566895,624.651978 1139.166626,626.333313 1139.000000,628.000000 
"/>
<path fill="none" opacity="1.000000" stroke="#000000" stroke-linecap="round" stroke-linejoin="round" stroke-width="6.000000"
	d="
M391.500000,376.500000 
	C392.000000,390.000000 392.500000,403.500000 393.000000,417.000000 
"/>
<path fill="none" opacity="1.000000" stroke="#000000" stroke-linecap="round" stroke-linejoin="round" stroke-width="3.000000"
	d="
M384.500000,509.500000 
	C384.833313,517.833313 385.121948,526.168823 385.516449,534.499207 
	C385.761292,539.670105 386.166656,544.833313 386.500000,550.000000 
"/>
<path fill="none" opacity="1.000000" stroke="#000000" stroke-linecap="round" stroke-linejoin="round" stroke-width="6.000000"
	d="
M394.500000,461.000000 
	C394.410004,474.521851 394.841461,488.024384 396.000000,501.500000 
"/>
<path fill="none" opacity="1.000000" stroke="#000000" stroke-linecap="round" stroke-linejoin="round" stroke-width="2.000000"
	d="
M1153.500000,509.000000 
	C1153.166748,517.666687 1152.870483,526.334961 1152.485474,534.999329 
	C1152.270752,539.831787 1153.096924,544.698730 1152.000000,549.500000 
"/>
<path fill="none" opacity="1.000000" stroke="#000000" stroke-linecap="round" stroke-linejoin="round" stroke-width="6.000000"
	d="
M395.500000,503.500000 
	C396.000000,517.000000 396.500000,530.500000 397.000000,544.000000 
"/>
<path fill="none" opacity="1.000000" stroke="#000000" stroke-linecap="round" stroke-linejoin="round" stroke-width="6.000000"
	d="
M1142.499878,503.000000 
	C1141.999878,516.500000 1141.499878,530.000000 1140.999878,543.500000 
"/>
<path fill="none" opacity="1.000000" stroke="#000000" stroke-linecap="round" stroke-linejoin="round" stroke-width="3.000000"
	d="
M1154.000000,466.500000 
	C1152.990845,477.813446 1152.993164,489.155945 1152.976807,500.499969 
	C1152.973999,502.500214 1152.666626,504.500000 1152.500000,506.500000 
"/>
<path fill="none" opacity="1.000000" stroke="#000000" stroke-linecap="round" stroke-linejoin="round" stroke-width="3.000000"
	d="
M386.000000,597.000000 
	C387.721924,598.191406 386.954437,599.982910 386.964783,601.500244 
	C387.032959,611.499756 386.985931,621.500061 387.013519,631.499939 
	C387.018250,633.213501 386.539612,635.058716 388.000000,636.500000 
"/>
<path fill="none" opacity="1.000000" stroke="#000000" stroke-linecap="round" stroke-linejoin="round" stroke-width="3.000000"
	d="
M1141.000000,587.000000 
	C1146.487793,587.491760 1152.219849,594.125977 1152.022949,599.500854 
	C1151.613892,610.664734 1151.330200,621.833191 1151.004150,633.000122 
	C1150.967407,634.259705 1151.207886,635.583191 1150.000000,636.500000 
"/>
<path fill="none" opacity="1.000000" stroke="#000000" stroke-linecap="round" stroke-linejoin="round" stroke-width="6.000000"
	d="
M397.000000,546.000000 
	C397.500000,568.833313 397.839539,591.672302 398.642487,614.494995 
	C398.793549,618.788757 398.143005,623.323242 400.000000,627.500000 
"/>
<path fill="none" opacity="1.000000" stroke="#000000" stroke-linecap="round" stroke-linejoin="round" stroke-width="3.000000"
	d="
M1144.000000,460.000000 
	C1149.321533,461.322113 1153.789062,464.487946 1158.421631,467.137054 
	C1161.719116,469.022705 1164.896362,469.747986 1168.500000,469.500000 
"/>
<path fill="none" opacity="1.000000" stroke="#000000" stroke-linecap="round" stroke-linejoin="round" stroke-width="3.000000"
	d="
M1153.000000,596.500000 
	C1154.833374,598.166687 1157.016968,599.583191 1158.423950,601.554260 
	C1161.023682,605.196167 1164.453247,605.950195 1168.500000,605.500000 
"/>
<path fill="none" opacity="1.000000" stroke="#000000" stroke-linecap="round" stroke-linejoin="round" stroke-width="3.000000"
	d="
M385.000000,552.500000 
	C380.290833,555.545166 376.695099,560.489685 370.500000,561.000000 
"/>
<path fill="none" opacity="1.000000" stroke="#000000" stroke-linecap="round" stroke-linejoin="round" stroke-width="3.000000"
	d="
M397.500000,587.000000 
	C392.562164,587.041199 390.900513,591.766785 387.580597,594.114014 
	C384.055206,596.606628 381.007263,599.852722 378.053253,603.049255 
	C375.909271,605.369263 372.848755,604.621887 370.500000,606.000000 
"/>
<path fill="none" opacity="1.000000" stroke="#000000" stroke-linecap="round" stroke-linejoin="round" stroke-width="3.000000"
	d="
M1168.500000,380.000000 
	C1164.147339,380.495514 1160.042358,379.443359 1156.000000,378.000000 
"/>
</svg>
