<svg version="1.1" id="Layer_1" xmlns="http://www.w3.org/2000/svg" xmlns:xlink="http://www.w3.org/1999/xlink" x="0px" y="0px"
	 width="328" height="170" viewBox="348 410 328 170" enable-background="new 0 0 1024 1024" xml:space="preserve">
<path fill="#000000" opacity="1.000000" stroke="none" 
	d="
M611.759277,420.011108 
	C617.029236,420.580688 621.866150,420.905151 626.614746,421.734741 
	C645.789978,425.084625 655.223389,434.712402 658.208435,453.958527 
	C661.346802,474.192780 663.446411,494.522583 664.483276,514.994080 
	C665.190735,528.961304 666.359131,542.901062 666.233948,556.902039 
	C666.159363,565.248779 662.655334,569.001160 654.645081,569.273071 
	C644.891724,569.604126 640.318054,566.207520 639.628601,558.046692 
	C639.054260,551.248108 638.431091,544.450073 638.061707,537.639282 
	C637.886047,534.399475 636.300354,532.890076 633.342834,532.166260 
	C628.632202,531.013489 623.874451,530.315552 619.031555,530.147461 
	C597.524109,529.400696 576.088318,531.039673 554.625916,531.960144 
	C525.999756,533.187866 497.393066,533.250305 468.738098,531.665894 
	C447.308289,530.481018 425.824005,529.090820 404.312317,530.201904 
	C388.381500,531.024719 386.717682,532.691528 386.265350,548.449707 
	C386.155609,552.273376 386.123871,556.146179 385.480560,559.897644 
	C384.263672,566.993896 378.698181,570.046326 369.226440,569.241028 
	C362.676178,568.684021 358.968292,564.905579 358.887421,558.107910 
	C358.635620,536.938721 360.490448,515.880554 362.276642,494.810242 
	C363.345367,482.203247 364.566101,469.631287 366.702026,457.161713 
	C367.347198,453.395020 368.034424,449.603180 369.131653,445.951843 
	C373.880707,430.148041 385.694824,422.088593 405.354462,420.737335 
	C416.334869,419.982635 427.319885,419.742157 438.316711,419.756378 
	C495.972992,419.830994 553.629272,419.916504 611.759277,420.011108 
M597.474854,437.829529 
	C602.795593,438.111023 608.116333,438.390961 613.437012,438.674286 
	C629.740417,439.542389 637.703125,446.172333 640.192139,462.166901 
	C643.108215,480.906403 644.992676,499.786255 646.338196,518.713013 
	C647.211121,530.991577 648.142273,543.266663 649.166504,555.533325 
	C649.462646,559.080688 652.068420,560.717224 654.903625,559.452271 
	C657.343384,558.363708 656.734863,556.104370 656.709351,554.214233 
	C656.444153,534.556152 655.517700,514.910522 653.441223,495.375397 
	C651.895569,480.834381 651.077087,466.176361 647.746948,451.837463 
	C645.186157,440.811340 639.180481,433.556915 627.557556,432.012360 
	C621.789612,431.245819 615.979248,430.464600 610.175781,430.357971 
	C585.188843,429.898773 560.197266,429.424347 535.207703,429.443542 
	C491.566193,429.477081 447.903992,428.480835 404.298523,431.135925 
	C387.555756,432.155365 381.073639,437.597992 377.259918,453.764893 
	C374.117828,467.084778 373.229614,480.738068 371.904724,494.315613 
	C369.947510,514.373291 369.242249,534.506592 368.335602,554.627380 
	C368.209808,557.418579 368.680145,559.656067 372.217041,559.665222 
	C375.581116,559.673889 376.514252,557.540161 376.550110,554.769409 
	C376.746277,539.605286 378.611694,524.559937 379.724854,509.461945 
	C380.973053,492.531982 382.453003,475.618286 385.619507,458.914490 
	C387.722229,447.822418 394.475281,441.364044 405.618652,439.453430 
	C411.873077,438.381104 418.178680,437.856567 424.506287,437.851929 
	C481.831757,437.809967 539.157288,437.822815 597.474854,437.829529 
M514.335266,468.079834 
	C514.009644,471.525604 515.570190,472.848755 519.008118,472.710419 
	C530.787292,472.236511 542.571655,471.878021 554.356323,471.559143 
	C557.058838,471.485992 557.698303,470.031128 557.684204,467.698608 
	C557.653076,462.547943 557.470276,457.417053 557.054932,452.273804 
	C556.781616,448.890320 555.364746,447.447937 552.148438,447.445770 
	C540.847717,447.438110 529.546753,447.467712 518.246338,447.406525 
	C515.197754,447.390015 514.219360,448.799866 514.303772,451.713593 
	C514.453003,456.861176 514.335449,462.016449 514.335266,468.079834 
M467.431366,478.207794 
	C467.306091,483.869324 467.189758,489.531067 467.051453,495.192291 
	C466.991486,497.645874 467.630280,499.501251 470.540558,499.586121 
	C482.520691,499.935516 494.501862,500.254425 506.479950,500.664612 
	C509.823700,500.779083 510.832306,499.129059 510.760010,496.069824 
	C510.638031,490.908844 510.599945,485.741272 510.719635,480.580994 
	C510.789337,477.576111 509.693268,476.641205 506.617004,476.581238 
	C495.135681,476.357239 483.661438,475.780792 472.183014,475.381958 
	C470.384216,475.319427 468.401520,475.088959 467.431366,478.207794 
M542.443237,476.064240 
	C534.631042,476.153900 526.818176,476.339874 519.006897,476.288544 
	C515.618042,476.266266 514.177612,477.518005 514.295349,480.983612 
	C514.464661,485.964813 514.493286,490.962860 514.282104,495.941010 
	C514.120117,499.759613 515.854614,500.901489 519.374329,500.743042 
	C531.155396,500.212646 542.940430,499.756134 554.727539,499.385590 
	C557.500671,499.298431 558.069519,497.735199 558.037659,495.493256 
	C557.959717,490.008484 557.782166,484.523712 557.801819,479.039520 
	C557.813293,475.834595 556.194214,475.074402 553.361511,475.359192 
	C550.058350,475.691315 546.735168,475.824951 542.443237,476.064240 
M467.925629,461.369446 
	C467.913666,462.864227 468.127350,464.402802 467.847534,465.845642 
	C466.998505,470.223297 469.068909,470.888794 472.995453,471.228638 
	C484.109955,472.190491 495.238129,471.788116 506.345612,472.285339 
	C509.719757,472.436432 510.835663,471.292114 510.757629,468.100861 
	C510.635803,463.120911 510.489899,458.121735 510.793121,453.157501 
	C511.034821,449.200317 509.353241,447.702393 505.671967,447.670288 
	C497.538391,447.599335 489.404938,447.385345 481.271851,447.403839 
	C466.292786,447.437897 468.454285,446.138519 467.925629,461.369446 
M466.254608,517.541260 
	C466.257904,519.206970 466.261871,520.872742 466.264404,522.538452 
	C466.267426,524.549438 467.204773,525.619019 469.282562,525.667480 
	C481.768005,525.958496 494.229156,527.041748 506.737244,526.695557 
	C509.843506,526.609619 510.783997,525.161255 510.727112,522.335876 
	C510.643311,518.172852 510.551880,513.997009 510.782166,509.844360 
	C511.003632,505.851410 509.692078,504.203979 505.416809,504.280579 
	C496.760132,504.435730 488.093781,504.092590 479.432159,503.918762 
	C466.783417,503.664917 466.783691,503.651367 466.254608,517.541260 
M538.497314,504.088684 
	C531.842163,504.159882 525.186951,504.287933 518.531982,504.276001 
	C515.621460,504.270782 514.261047,505.420959 514.320679,508.428741 
	C514.416260,513.251892 514.391296,518.079956 514.292114,522.903442 
	C514.235291,525.662720 515.406006,526.843262 518.161743,526.752625 
	C530.462219,526.347961 542.764099,525.984985 555.066528,525.644165 
	C557.534973,525.575745 558.715515,524.377441 558.770203,521.953430 
	C558.886719,516.789856 558.654297,511.648407 558.070129,506.511505 
	C557.804871,504.178864 556.763855,503.461426 554.454773,503.598907 
	C549.476379,503.895325 544.482422,503.930481 538.497314,504.088684 
M562.104553,485.530182 
	C562.117554,488.524109 562.230225,491.521820 562.117554,494.511017 
	C561.985046,498.025757 563.653809,499.237427 566.997681,499.000641 
	C576.776855,498.308197 586.559326,497.644562 596.348999,497.130646 
	C599.431091,496.968842 600.886963,495.868439 600.772644,492.616516 
	C600.597290,487.631897 600.605347,482.636627 600.691895,477.648590 
	C600.747070,474.466187 599.453369,473.101593 596.218140,473.295807 
	C587.760437,473.803680 579.275757,473.959991 570.838257,474.682159 
	C561.986572,475.439789 562.005066,475.656067 562.104553,485.530182 
M424.409851,483.746155 
	C424.468811,486.238831 424.615479,488.733215 424.566833,491.223785 
	C424.487152,495.306366 426.218567,497.141235 430.479309,497.283020 
	C439.774750,497.592285 449.061951,498.223450 458.342499,498.867950 
	C461.936066,499.117554 463.015381,497.476807 462.982330,494.169434 
	C462.932434,489.182556 462.910339,484.172516 463.337555,479.212036 
	C463.609741,476.051636 462.398010,474.994110 459.552887,474.833801 
	C451.423584,474.375824 443.303619,473.671997 435.168884,473.411804 
	C425.379547,473.098694 425.374603,473.253357 424.409851,483.746155 
M588.566589,447.929718 
	C581.081726,447.761475 573.596863,447.593628 566.112000,447.424835 
	C562.609802,447.345886 560.924377,448.870514 561.096130,452.554260 
	C561.305237,457.041199 561.407654,461.550201 561.206909,466.034058 
	C561.022339,470.158112 562.940918,471.190735 566.665039,470.942993 
	C574.798218,470.401917 582.947632,470.109314 591.088745,469.683380 
	C600.820251,469.174255 600.819397,469.159882 600.647888,459.411865 
	C600.450562,448.203644 600.450684,448.203644 588.566589,447.929718 
M442.067017,447.684723 
	C437.908234,447.813019 433.749664,448.031342 429.590637,448.039490 
	C426.568817,448.045380 424.886078,449.071991 424.973450,452.386505 
	C425.083069,456.545074 425.014160,460.709747 424.956177,464.870819 
	C424.919983,467.468140 425.969421,468.946228 428.697479,469.094299 
	C439.160828,469.662018 449.622284,470.265137 460.084351,470.855927 
	C462.582611,470.997040 463.749817,469.845795 463.753540,467.318024 
	C463.760651,462.490448 463.716370,457.655182 463.974213,452.838104 
	C464.174377,449.098755 462.313293,447.675964 458.966248,447.631287 
	C453.643707,447.560181 448.319702,447.594818 442.067017,447.684723 
M462.180542,522.536316 
	C462.379456,517.552856 462.496368,512.564270 462.806915,507.587799 
	C463.004242,504.425385 461.696930,503.034302 458.554016,502.873016 
	C448.586609,502.361572 438.624329,501.747650 428.662079,501.140381 
	C425.339508,500.937836 424.268707,502.650238 424.340088,505.711487 
	C424.437134,509.872711 424.572998,514.052917 424.288727,518.197327 
	C424.015961,522.173706 425.764771,523.532166 429.479279,523.650208 
	C438.627563,523.940979 447.769165,524.437012 456.915344,524.803162 
	C458.696198,524.874451 460.654816,525.289673 462.180542,522.536316 
M600.754517,516.293701 
	C600.753784,512.967590 600.579102,509.630005 600.797852,506.318390 
	C601.051819,502.474609 599.679382,500.833252 595.670349,501.143372 
	C585.900085,501.899200 576.114685,502.466003 566.331848,503.049194 
	C563.641785,503.209564 562.429626,504.496033 562.546204,507.173767 
	C562.734070,511.489899 563.011230,515.809265 562.982666,520.125488 
	C562.958374,523.795959 564.482849,525.120117 568.134644,524.888245 
	C576.922607,524.330261 585.723267,523.826477 594.524902,523.688721 
	C599.162354,523.616150 601.481873,522.084717 600.754517,516.293701 
M604.388184,507.623505 
	C604.394409,508.789551 604.397766,509.955627 604.407288,511.121643 
	C604.499939,522.509033 604.486023,522.741638 615.663208,523.425415 
	C622.581177,523.848511 629.365479,525.460144 636.521606,525.920715 
	C637.422241,518.578308 635.862427,511.867737 635.381409,505.122894 
	C635.204651,502.644836 632.796387,502.399719 630.746094,502.247955 
	C624.108154,501.756622 617.466797,501.309967 610.831177,500.790222 
	C604.455994,500.290894 604.458374,500.260284 604.388184,507.623505 
M389.168579,525.303772 
	C389.631683,525.473755 390.141388,525.866577 390.550995,525.780884 
	C399.536011,523.901245 408.675049,523.562073 417.791168,522.990356 
	C420.206329,522.838928 420.728455,521.250977 420.724548,519.195496 
	C420.716034,514.702026 420.622223,510.203125 420.809082,505.716675 
	C420.951508,502.296295 419.595673,500.991364 416.167236,500.934509 
	C408.489136,500.807220 400.886322,501.564484 393.272186,502.319519 
	C391.087219,502.536163 389.793884,503.815460 389.720734,505.827209 
	C389.491943,512.117310 387.639404,518.316589 389.168579,525.303772 
M620.984192,473.456696 
	C616.992188,473.375763 612.997620,473.356262 609.008911,473.194214 
	C605.871887,473.066772 604.379456,474.416443 604.406555,477.586578 
	C604.450623,482.744080 604.455505,487.903137 604.377258,493.060028 
	C604.335449,495.815887 605.597717,496.932343 608.293152,496.962280 
	C615.612915,497.043457 622.902893,497.632721 630.153748,498.630829 
	C633.665588,499.114227 635.157043,497.829376 634.583801,494.211426 
	C634.168091,491.587769 634.071289,488.913513 633.653992,486.290161 
	C631.609009,473.433380 634.646118,475.633667 620.984192,473.456696 
M390.512177,497.024872 
	C390.989960,498.718262 392.353424,498.827118 393.711884,498.658844 
	C401.648071,497.675751 409.602600,496.963654 417.603424,496.850983 
	C420.345123,496.812347 420.807922,495.028748 420.796692,492.797607 
	C420.770691,487.632599 420.709839,482.465820 420.814026,477.302795 
	C420.873962,474.332428 419.664795,473.162659 416.667267,473.138214 
	C410.321777,473.086365 404.040863,473.913879 397.728271,474.185059 
	C394.055359,474.342896 392.729919,476.163422 392.367462,479.379974 
	C391.734131,485.000519 391.078339,490.618530 390.512177,497.024872 
M604.365967,454.756409 
	C604.375610,458.252899 604.402649,461.749481 604.388367,465.245880 
	C604.379822,467.335266 605.005798,468.782379 607.411377,468.956482 
	C614.048462,469.436768 620.678162,470.020905 627.316528,470.481659 
	C628.770630,470.582611 630.298279,470.662720 630.916687,468.670197 
	C633.013733,461.913544 627.037659,451.140472 620.032410,449.570312 
	C616.802063,448.846222 613.440308,448.719543 610.144775,448.272400 
	C605.844788,447.689026 603.813416,449.407257 604.365967,454.756409 
M418.073425,448.297089 
	C415.431091,448.450836 412.753510,448.382751 410.152557,448.796570 
	C398.684448,450.621094 395.133270,454.626160 394.207397,466.112610 
	C393.957184,469.216339 394.456787,470.895996 398.157318,470.342590 
	C401.589630,469.829285 405.100922,469.862549 408.572083,469.587463 
	C420.860931,468.613617 420.950989,468.600922 420.715912,456.080139 
	C420.667572,453.505859 422.179962,450.329315 418.073425,448.297089 
z"/>
</svg>
